<?xml version="1.0" encoding="UTF-8" standalone="no"?>
<!-- Created with Inkscape (http://www.inkscape.org/) -->

<svg
   width="72.000702mm"
   height="72mm"
   viewBox="0 0 255.12059 255.11811"
   id="svg5152"
   version="1.1"
   inkscape:version="1.4.2 (ebf0e940d0, 2025-05-08)"
   sodipodi:docname="hackeriet_edited.svg"
   xml:space="preserve"
   xmlns:inkscape="http://www.inkscape.org/namespaces/inkscape"
   xmlns:sodipodi="http://sodipodi.sourceforge.net/DTD/sodipodi-0.dtd"
   xmlns="http://www.w3.org/2000/svg"
   xmlns:svg="http://www.w3.org/2000/svg"
   xmlns:rdf="http://www.w3.org/1999/02/22-rdf-syntax-ns#"
   xmlns:cc="http://creativecommons.org/ns#"
   xmlns:dc="http://purl.org/dc/elements/1.1/"><defs
     id="defs5154" /><sodipodi:namedview
     id="base"
     pagecolor="#208653"
     bordercolor="#666666"
     borderopacity="1.0"
     inkscape:pageopacity="0"
     inkscape:pageshadow="2"
     inkscape:zoom="2.4833591"
     inkscape:cx="51.341749"
     inkscape:cy="191.07184"
     inkscape:document-units="px"
     inkscape:current-layer="g5127"
     showgrid="false"
     fit-margin-top="0"
     fit-margin-left="0"
     fit-margin-right="0"
     fit-margin-bottom="0"
     inkscape:window-width="2556"
     inkscape:window-height="1418"
     inkscape:window-x="0"
     inkscape:window-y="0"
     inkscape:window-maximized="1"
     inkscape:showpageshadow="2"
     inkscape:pagecheckerboard="0"
     inkscape:deskcolor="#d1d1d1" /><metadata
     id="metadata5157"><rdf:RDF><cc:Work
         rdf:about=""><dc:format>image/svg+xml</dc:format><dc:type
           rdf:resource="http://purl.org/dc/dcmitype/StillImage" /></cc:Work></rdf:RDF></metadata><g
     inkscape:label="Layer 1"
     inkscape:groupmode="layer"
     id="layer1"
     transform="translate(-345.38361,-398.06802)"><g
       transform="matrix(10,0,0,10,-0.42423743,51.912222)"
       style="display:inline;opacity:1;enable-background:new"
       id="g5127"><path
         id="path1366"
         style="display:inline;fill:#ffffff;fill-opacity:1;stroke:none;stroke-width:0.255097;enable-background:new"
         d="M 40.596715 40.372233 C 40.00904 40.437973 39.37739 40.545578 38.837255 40.725626 L 38.870946 42.68632 C 38.415115 42.911481 37.98668 43.244105 37.599462 43.544535 L 36.041234 42.876017 C 35.556984 44.089955 35.269522 45.377141 35.193273 46.684977 L 36.176183 46.684794 L 36.176183 48.272318 L 35.205174 48.272135 C 35.316249 49.791936 35.716313 51.311313 36.42777 52.749247 L 37.25211 52.27299 L 38.046056 53.647929 L 37.222081 54.123637 C 38.133598 55.49021 39.282147 56.617551 40.580968 57.48234 L 41.06107 56.650858 L 42.435826 57.444804 L 41.957372 58.273905 C 43.389188 58.977184 44.948358 59.393858 46.540502 59.498515 L 46.540502 58.559916 L 48.128209 58.559733 L 48.128026 59.499064 C 49.683326 59.397644 51.239918 58.99469 52.710973 58.26713 L 52.220433 57.417521 L 53.595189 56.623759 L 54.085729 57.473368 C 56.17619 56.080165 57.707822 54.133264 58.597448 51.943217 L 56.879735 51.193583 C 56.482326 51.512829 56.075769 51.811922 55.599828 52.043558 L 55.625096 53.987406 C 55.016997 54.189719 54.384227 54.335027 53.73087 54.357645 L 53.023717 52.539957 C 52.574011 52.472787 52.143127 52.406222 51.67661 52.26237 C 51.224677 52.725518 50.770619 53.185719 50.32108 53.650858 C 49.702306 53.355513 49.141752 53.017918 48.637242 52.514872 C 48.901742 51.924663 49.158243 51.330892 49.420201 50.739298 C 49.148433 50.379782 48.891119 50.010198 48.654088 49.594889 L 46.709142 49.620158 C 46.513814 49.0246 46.375475 48.383889 46.339452 47.740031 C 46.752107 47.576447 47.166608 47.407665 47.580724 47.241801 L 47.582738 47.241068 L 47.776464 47.165446 C 47.776021 47.165057 47.775451 47.164641 47.774999 47.164164 C 47.8969 47.115644 48.01878 47.067485 48.140477 47.019877 C 48.121777 46.338076 47.98927 45.647839 47.736363 45.025675 C 47.089532 45.042525 46.438563 45.054039 45.791417 45.067789 C 45.566793 44.666544 45.296222 44.274847 45.025304 43.931803 L 45.79984 42.139384 C 45.280826 41.697952 44.748788 41.355449 44.183385 41.07902 L 42.836278 42.475931 C 42.344407 42.325299 41.840667 42.238747 41.33756 42.189921 L 40.596715 40.372233 z M 40.420751 44.998759 L 41.841649 44.998759 L 41.841649 46.517435 L 43.317662 46.517435 L 43.317662 47.979349 L 41.841649 47.979349 L 41.841649 49.498026 L 40.420751 49.498026 L 40.420751 47.979349 L 38.944737 47.979349 L 38.944737 46.517618 L 40.420751 46.517618 L 40.420751 44.998759 z M 51.484166 46.51359 L 51.484166 47.983012 L 55.286351 47.983012 L 55.286351 46.51359 L 51.484166 46.51359 z " /></g></g></svg>
