<?xml version="1.0" encoding="UTF-8" standalone="no"?>
<!-- Created with Inkscape (http://www.inkscape.org/) -->

<svg
   width="72.000702mm"
   height="72mm"
   viewBox="0 0 255.12059 255.11811"
   id="svg5152"
   version="1.1"
   inkscape:version="1.4.2 (ebf0e940d0, 2025-05-08)"
   sodipodi:docname="hackeriet_editing.svg"
   xml:space="preserve"
   xmlns:inkscape="http://www.inkscape.org/namespaces/inkscape"
   xmlns:sodipodi="http://sodipodi.sourceforge.net/DTD/sodipodi-0.dtd"
   xmlns="http://www.w3.org/2000/svg"
   xmlns:svg="http://www.w3.org/2000/svg"
   xmlns:rdf="http://www.w3.org/1999/02/22-rdf-syntax-ns#"
   xmlns:cc="http://creativecommons.org/ns#"
   xmlns:dc="http://purl.org/dc/elements/1.1/"><defs
     id="defs5154" /><sodipodi:namedview
     id="base"
     pagecolor="#208653"
     bordercolor="#666666"
     borderopacity="1.0"
     inkscape:pageopacity="0"
     inkscape:pageshadow="2"
     inkscape:zoom="2.4833591"
     inkscape:cx="73.89185"
     inkscape:cy="199.12545"
     inkscape:document-units="px"
     inkscape:current-layer="g5127"
     showgrid="false"
     fit-margin-top="0"
     fit-margin-left="0"
     fit-margin-right="0"
     fit-margin-bottom="0"
     inkscape:window-width="2556"
     inkscape:window-height="1418"
     inkscape:window-x="0"
     inkscape:window-y="0"
     inkscape:window-maximized="1"
     inkscape:showpageshadow="2"
     inkscape:pagecheckerboard="0"
     inkscape:deskcolor="#d1d1d1" /><metadata
     id="metadata5157"><rdf:RDF><cc:Work
         rdf:about=""><dc:format>image/svg+xml</dc:format><dc:type
           rdf:resource="http://purl.org/dc/dcmitype/StillImage" /></cc:Work></rdf:RDF></metadata><g
     inkscape:label="Layer 1"
     inkscape:groupmode="layer"
     id="layer1"
     transform="translate(-345.38361,-398.06802)"><g
       transform="matrix(10,0,0,10,-0.42423743,51.912222)"
       style="display:inline;opacity:1;enable-background:new"
       id="g5127"><path
         id="path1366"
         style="display:inline;fill:#ffffff;fill-opacity:1;stroke:none;stroke-width:0.255097;enable-background:new"
         d="m 47.341113,34.897351 c -0.06646,-2e-6 -0.13282,5.08e-4 -0.199035,0.0015 0.06622,3.38e-4 0.13254,0.0012 0.199316,0.0021 0.344147,-0.0018 0.684899,0.04369 1.027193,0.07142 -0.341815,-0.02809 -0.6784,-0.07502 -1.027474,-0.07502 z m 3.537466,0.51208 c 1.140873,0.337658 2.233387,0.837221 3.233714,1.481726 -0.989774,-0.640255 -2.077468,-1.140653 -3.233714,-1.481726 z m -7.504941,0.131394 c -1.783829,0.597362 -3.38781,1.586509 -4.709647,2.865221 1.336781,-1.281124 2.957178,-2.268807 4.709647,-2.865221 z m -2.683757,4.834544 c -0.587677,0.06574 -1.21947,0.173408 -1.759602,0.353454 l 0.03368,1.960641 c -0.45583,0.22516 -0.88412,0.55787 -1.271345,0.858293 l -1.784874,-0.765715 c -0.111894,0.126745 -0.21855,0.258218 -0.320107,0.393341 0.0269,-0.07709 0.05469,-0.153883 0.08342,-0.230327 -0.02912,0.07674 -0.05721,0.153945 -0.08436,0.23159 -0.125155,0.166594 -0.242589,0.338697 -0.35252,0.514182 -0.08609,0.283736 -0.152589,0.574931 -0.218881,0.866743 l 0.147132,0.140037 c -0.190118,0.860954 -0.298664,1.752321 -0.298661,2.670489 5e-6,0.05709 3.96e-4,0.114094 0.0012,0.171001 -0.05367,0.02163 -0.107388,0.04318 -0.161151,0.0646 0.01374,0.745894 0.08981,1.479195 0.227338,2.187883 0.05573,-0.0013 0.111485,-0.0027 0.16727,-0.0039 1.126827,5.729909 6.179097,10.051181 12.24271,10.051182 5.418635,0 10.029654,-3.450839 11.753423,-8.274018 -0.105359,0.141007 -0.215266,0.279411 -0.328508,0.414594 l -1.793281,-0.782575 c -0.397409,0.319244 -0.803814,0.618245 -1.279756,0.849881 l 0.02527,1.943823 c -0.608098,0.202315 -1.241,0.34765 -1.894359,0.370268 L 53.11674,52.543226 c -0.449702,-0.06717 -0.880592,-0.133833 -1.347107,-0.277688 -0.451933,0.463149 -0.905932,0.923305 -1.355471,1.388445 -0.618775,-0.295346 -1.179376,-0.632936 -1.683886,-1.135981 0.2645,-0.590208 0.521036,-1.183934 0.782996,-1.775529 -0.271768,-0.359516 -0.529102,-0.729131 -0.76613,-1.144437 l -1.944854,0.02527 c -0.195327,-0.595557 -0.33373,-1.236302 -0.369753,-1.880158 0.412658,-0.163586 0.827243,-0.332349 1.241358,-0.49821 l 0.0019,-7.35e-4 0.193701,-0.07562 c -4.42e-4,-3.89e-4 -9.52e-4,-7.53e-4 -0.0014,-0.0012 0.121901,-0.04852 0.243756,-0.09669 0.365455,-0.144289 -0.01869,-0.681832 -0.151226,-1.372155 -0.404131,-1.994319 -0.646831,0.01685 -1.297708,0.02834 -1.944854,0.04209 -0.22463,-0.401269 -0.495218,-0.792982 -0.766135,-1.136025 l 0.774512,-1.792321 c -0.518999,-0.441403 -1.051071,-0.783856 -1.616475,-1.060286 l -1.347062,1.396854 c -0.491869,-0.150631 -0.995525,-0.237273 -1.498635,-0.286096 z m 17.642536,1.084603 c 0.594706,1.117602 1.018395,2.326523 1.257428,3.570677 l 0.0098,-1.3e-4 c -0.240642,-1.268688 -0.673534,-2.469347 -1.267235,-3.570546 z m -17.818492,3.541903 1.420814,0 2e-6,1.518814 1.476073,1e-6 2e-6,1.461778 -1.476077,1e-6 3e-6,1.51872 -1.420817,0 0,-1.518719 -1.476074,-10e-7 0,-1.461732 1.476074,-2e-6 z m 11.063335,1.514937 -1e-6,1.469439 3.802218,0 10e-7,-1.469439 z m 8.23964,0.654355 -9.46e-4,3.62e-4 c 0.01178,0.591318 -0.02906,1.182614 -0.102575,1.76969 0.06505,-0.515939 0.105097,-1.039537 0.105097,-1.573137 0,-0.06576 -5.25e-4,-0.13141 -0.0015,-0.196922 z m -0.315338,2.990264 c -0.0035,0.01507 -0.0083,0.02981 -0.01191,0.04489 l 0.0035,0.0035 c 0.0037,-0.0158 0.0048,-0.03253 0.0084,-0.04834 z" /><path
         inkscape:connector-curvature="0"
         id="path9351"
         d="m 36.295218,40.994744 c -3.521836,6.099999 -1.43401,13.900128 4.662772,17.4201 6.096775,3.519978 13.907468,1.434768 17.429304,-4.665234 3.521838,-6.1 1.422336,-13.906863 -4.67444,-17.42684 -6.096778,-3.519976 -13.895798,-1.428026 -17.417636,4.671974 z m 0.525168,0.303208 c 3.358661,-5.817372 10.781546,-7.818297 16.595845,-4.461413 5.814296,3.356884 7.804556,10.792495 4.445898,16.609865 -3.358662,5.817369 -10.79322,7.811558 -16.607514,4.454672 C 35.440317,54.54419 33.461729,47.115319 36.820386,41.297952 Z"
         style="color:#000000;font-family:Sans;-inkscape-font-specification:Sans;display:inline;visibility:visible;fill:#ff2a2a;fill-opacity:1;stroke:none;stroke-width:0.357037;marker:none" /><rect
         x="63.9002"
         y="-6.2252631"
         width="1.5874016"
         height="1.6653543"
         fill="#000000"
         stroke="#000000"
         stroke-width="0.01"
         id="rect1"
         transform="rotate(60)" /><rect
         x="63.888275"
         y="28.440891"
         width="1.5874016"
         height="1.6653543"
         fill="#000000"
         stroke="#000000"
         stroke-width="0.01"
         id="rect1-1"
         style="display:inline;enable-background:new"
         transform="rotate(30)" /><rect
         x="46.544338"
         y="58.456558"
         width="1.5874016"
         height="1.6653543"
         fill="#000000"
         stroke="#000000"
         stroke-width="0.01"
         id="rect1-7"
         style="display:inline;enable-background:new" /><rect
         x="16.516737"
         y="75.779083"
         width="1.5874016"
         height="1.6653543"
         fill="#000000"
         stroke="#000000"
         stroke-width="0.01"
         id="rect1-2"
         style="display:inline;enable-background:new"
         transform="rotate(-30)" /><rect
         x="46.575962"
         y="-36.254105"
         width="1.5874016"
         height="1.6653543"
         fill="#000000"
         stroke="#000000"
         stroke-width="0.01"
         id="rect1-23"
         style="display:inline;enable-background:new"
         transform="rotate(90)" /></g></g></svg>
