<?xml version="1.0" encoding="UTF-8" standalone="no"?>
<!-- Created with Inkscape (http://www.inkscape.org/) -->

<svg
   width="86.711372mm"
   height="69.691216mm"
   viewBox="0 0 86.711372 69.691216"
   version="1.1"
   id="svg1"
   xml:space="preserve"
   sodipodi:docname="hackeriet_edited.svg"
   inkscape:version="1.4.2 (ebf0e940d0, 2025-05-08)"
   xmlns:inkscape="http://www.inkscape.org/namespaces/inkscape"
   xmlns:sodipodi="http://sodipodi.sourceforge.net/DTD/sodipodi-0.dtd"
   xmlns="http://www.w3.org/2000/svg"
   xmlns:svg="http://www.w3.org/2000/svg"><sodipodi:namedview
     id="namedview1"
     pagecolor="#6b873d"
     bordercolor="#000000"
     borderopacity="0.25"
     inkscape:showpageshadow="2"
     inkscape:pageopacity="0.0"
     inkscape:pagecheckerboard="0"
     inkscape:deskcolor="#d1d1d1"
     inkscape:document-units="mm"
     inkscape:zoom="3.2402366"
     inkscape:cx="201.5285"
     inkscape:cy="112.49179"
     inkscape:window-width="2556"
     inkscape:window-height="1418"
     inkscape:window-x="0"
     inkscape:window-y="0"
     inkscape:window-maximized="1"
     inkscape:current-layer="svg1" /><defs
     id="defs1" /><g
     id="layer1"
     transform="matrix(0.78,0,0,0.78,-21.761477,-54.302431)"
     inkscape:export-filename="hackeriet_edited.svg"
     inkscape:export-xdpi="96"
     inkscape:export-ydpi="96"><g
       style="enable-background:new"
       id="g1"
       transform="matrix(0.26458333,0,0,0.26458333,91.28125,134.67292)"><g
         id="layer2"
         style="display:inline"
         transform="translate(36.417288,4.4305543)" /><g
         id="layer1-3"
         style="display:inline"
         transform="translate(2.000002,2.0000043)" /><g
         id="layer3"
         style="display:inline"
         transform="translate(36.417288,4.4305543)" /><g
         id="layer4"
         style="display:inline"
         transform="translate(4.657385,4.6383743)"><g
           id="g4515"
           transform="rotate(-67.014537,-49.418955,-74.780762)"><path
             d="m 51.956363,-190.6841 c -3.859172,-6.87395 -8.460587,-14.07499 -13.476274,-19.7716 l -23.898044,10.59176 c -5.1273344,-4.42343 -11.4277865,-7.94796 -17.1234178,-11.13977 0,0 -0.00183,-0.01 -0.00183,-0.01 0,0 -0.00848,0.004 -0.00848,0.004 0,0 -0.00183,-0.01 -0.00183,-0.01 0,0 -0.00848,0.004 -0.00848,0.004 l 0.1187597,-23.82738 c 0.00983,-8e-5 0.025363,1.3e-4 0.036329,-0.002 l 0.042015,-7.96514 c -65.1675009,0.53662 -127.7403409,42.21363 -152.9459009,102.41886 -26.86792,59.759425 -14.43363,134.2938192 30.21153,182.212216 32.156771,36.050581 80.350333,55.959192 128.2943902,55.519274 0.1339661,-0.0012 0.2681345,-0.0027 0.4020736,-0.0042 L 3.447494,89.344681 c -0.013491,2.85e-4 -0.028601,0.0031 -0.041919,0.0033 -0.00559,2.66e-4 -0.015226,0.0017 -0.020969,0.0017 L 3.6560193,65.421974 C -2.3274897,62.200589 -8.1090608,58.767667 -13.42479,54.127171 l -23.737786,10.409017 c -5.64206,-6.415433 -10.71205,-13.430968 -14.382886,-21.335289 l 18.64186,-18.125207 c -1.510736,-5.870219 -2.926671,-11.509999 -3.583236,-17.9849077 -8.033516,-3.1434382 -16.041354,-6.32380513 -24.086866,-9.427516 0.412654,-9.1310333 1.645348,-17.7691283 5.201521,-26.5758903 8.62013,0.182302 17.245566,0.25048 25.869506,0.394395 3.002674,-5.203838 6.203686,-10.284845 10.071725,-15.351894 l -10.411089,-23.743698 c 6.29739,-5.490828 13.440354,-10.521819 21.1578936,-14.307853 4.1780431,4.243785 8.43549259,8.486953 12.6495934,12.736451 0.02174,0.02182 0.042497,0.04465 0.064314,0.06661 l 1.8079232,1.853136 0.00366,-0.0089 -0.0027,-0.0062 0.00366,-0.0089 c 1.2293405,1.244863 2.4565706,2.492422 3.6732468,3.739688 8.274315,-3.770511 16.057414,-8.980104 22.382799,-15.316373 -3.566081,-7.854173 -7.083329,-15.784189 -10.612939,-23.65834 3.760226,-4.84183 7.162821,-10.20011 9.967721,-15.30788 l 26.027394,0.20502 c 2.723777,-8.66452 4.163424,-16.97924 4.621021,-25.35676 l -24.143344,-9.28823 c -0.705063,-6.82138 -2.256031,-13.44919 -4.269411,-19.87983 z m -57.7208694,21.86224 7.3796161,17.44642 -18.6453867,7.88677 7.6668093,18.12547 -17.9480313,7.59178 -7.666827,-18.12545 -18.645412,7.88678 -7.379614,-17.44644 18.645405,-7.88677 -7.664247,-18.11932 17.948041,-7.59179 7.664242,18.11932 z"
             style="display:inline;fill:#f9f9f9;stroke-width:3.40071;enable-background:new"
             id="path2" /></g></g></g></g></svg>
