<?xml version="1.0" encoding="UTF-8" standalone="no"?>
<!-- Created with Inkscape (http://www.inkscape.org/) -->

<svg
   width="72.000702mm"
   height="72mm"
   viewBox="0 0 255.12059 255.11811"
   id="svg5152"
   version="1.1"
   inkscape:version="1.4.2 (ebf0e940d0, 2025-05-08)"
   sodipodi:docname="hackeriet_edited.svg"
   xml:space="preserve"
   xmlns:inkscape="http://www.inkscape.org/namespaces/inkscape"
   xmlns:sodipodi="http://sodipodi.sourceforge.net/DTD/sodipodi-0.dtd"
   xmlns="http://www.w3.org/2000/svg"
   xmlns:svg="http://www.w3.org/2000/svg"
   xmlns:rdf="http://www.w3.org/1999/02/22-rdf-syntax-ns#"
   xmlns:cc="http://creativecommons.org/ns#"
   xmlns:dc="http://purl.org/dc/elements/1.1/"><defs
     id="defs5154" /><sodipodi:namedview
     id="base"
     pagecolor="#208653"
     bordercolor="#666666"
     borderopacity="1.0"
     inkscape:pageopacity="0"
     inkscape:pageshadow="2"
     inkscape:zoom="2.4833591"
     inkscape:cx="73.89185"
     inkscape:cy="199.12545"
     inkscape:document-units="px"
     inkscape:current-layer="g5127"
     showgrid="false"
     fit-margin-top="0"
     fit-margin-left="0"
     fit-margin-right="0"
     fit-margin-bottom="0"
     inkscape:window-width="2556"
     inkscape:window-height="1418"
     inkscape:window-x="0"
     inkscape:window-y="0"
     inkscape:window-maximized="1"
     inkscape:showpageshadow="2"
     inkscape:pagecheckerboard="0"
     inkscape:deskcolor="#d1d1d1" /><metadata
     id="metadata5157"><rdf:RDF><cc:Work
         rdf:about=""><dc:format>image/svg+xml</dc:format><dc:type
           rdf:resource="http://purl.org/dc/dcmitype/StillImage" /></cc:Work></rdf:RDF></metadata><g
     inkscape:label="Layer 1"
     inkscape:groupmode="layer"
     id="layer1"
     transform="translate(-345.38361,-398.06802)"><g
       transform="matrix(10,0,0,10,-0.42423743,51.912222)"
       style="display:inline;opacity:1;enable-background:new"
       id="g5127"><path
         id="path1366"
         style="display:inline;fill:#ffffff;fill-opacity:1;stroke:none;stroke-width:0.255097;enable-background:new"
         d="M 40.689916 40.375345 C 40.102239 40.441085 39.470404 40.548693 38.930272 40.728739 L 38.963963 42.689432 C 38.508133 42.914592 38.079887 43.247408 37.692662 43.547831 L 36.063939 42.8491 C 35.574947 44.061826 35.294894 45.319344 35.211583 46.576029 L 36.254186 46.576029 L 36.254186 48.16337 L 35.210301 48.16337 C 35.313356 49.757192 35.729246 51.318102 36.432713 52.751078 L 37.341283 52.226481 L 38.135045 53.601237 L 37.224095 54.127299 C 38.088536 55.425411 39.215789 56.573414 40.583165 57.484354 L 41.108495 56.574686 L 42.483068 57.368449 L 41.958287 58.277567 C 43.43027 59.004843 44.987898 59.406707 46.544347 59.506388 L 46.544347 58.456644 L 48.131688 58.456644 L 48.131688 59.503825 C 49.724048 59.397142 51.283751 58.978218 52.715551 58.27244 L 52.193517 57.368266 L 53.568273 56.574503 L 54.09049 57.479227 C 55.594314 56.475097 56.896595 55.118625 57.862096 53.446329 C 58.151164 52.945649 58.400566 52.432929 58.611364 51.911906 L 56.972753 51.196879 C 56.575344 51.516123 56.168971 51.815035 55.693029 52.046671 L 55.718297 53.990519 C 55.110199 54.192834 54.477247 54.33814 53.823888 54.360758 L 53.116735 52.543253 C 52.667033 52.476083 52.236143 52.409337 51.769628 52.265482 C 51.317695 52.728631 50.863637 53.188831 50.414098 53.653971 C 49.795323 53.358625 49.23477 53.02103 48.73026 52.517985 C 48.99476 51.927777 49.251259 51.334006 49.513219 50.742411 C 49.241451 50.382895 48.984134 50.013308 48.747106 49.598002 L 46.802342 49.62327 C 46.607015 49.027713 46.468492 48.386999 46.432469 47.743143 C 46.845127 47.579557 47.25981 47.410774 47.673925 47.244913 L 47.675756 47.244181 L 47.869481 47.168558 C 47.869039 47.168169 47.868464 47.167907 47.868016 47.16746 C 47.989917 47.11894 48.111796 47.070772 48.233495 47.023173 C 48.214805 46.341341 48.082286 45.650952 47.829381 45.028788 C 47.18255 45.045638 46.531764 45.057152 45.884618 45.070902 C 45.659988 44.669633 45.389422 44.277959 45.118505 43.934916 L 45.892858 42.142496 C 45.373859 41.701093 44.841807 41.358746 44.276403 41.082316 L 42.929479 42.479044 C 42.43761 42.328413 41.93387 42.241856 41.43076 42.193033 L 40.689916 40.375345 z M 40.513951 45.001871 L 41.934667 45.001871 L 41.934667 46.520731 L 43.410863 46.520731 L 43.410863 47.982462 L 41.934667 47.982462 L 41.934667 49.501139 L 40.513951 49.501139 L 40.513951 47.982462 L 39.037938 47.982462 L 39.037938 46.520731 L 40.513951 46.520731 L 40.513951 45.001871 z M 51.577184 46.516886 L 51.577184 47.986307 L 55.379552 47.986307 L 55.379552 46.516886 L 51.577184 46.516886 z " /></g></g></svg>
