  0
SECTION
  2
HEADER
  9
$ACADVER
  1
AC1014
  9
$HANDSEED
  5
FFFF
  9
$INSUNITS
 70
     4
  9
$MEASUREMENT
 70
     1
  0
ENDSEC
  0
SECTION
  2
TABLES
  0
TABLE
  2
VPORT
  5
8
330
0
100
AcDbSymbolTable
 70
     4
  0
VPORT
  5
2E
330
8
100
AcDbSymbolTableRecord
100
AcDbViewportTableRecord
  2
*ACTIVE
 70
     0
 10
0.0
 20
0.0
 11
1.0
 21
1.0
 12
210.0
 22
148.5
 13
0.0
 23
0.0
 14
10.0
 24
10.0
 15
10.0
 25
10.0
 16
0.0
 26
0.0
 36
1.0
 17
0.0
 27
0.0
 37
0.0
 40
341.0
 41
1.24
 42
50.0
 43
0.0
 44
0.0
 50
0.0
 51
0.0
 71
     0
 72
   100
 73
     1
 74
     3
 75
     0
 76
     0
 77
     0
 78
     0
  0
ENDTAB
  0
TABLE
  2
LTYPE
  5
5
330
0
100
AcDbSymbolTable
 70
     1
  0
LTYPE
  5
14
330
5
100
AcDbSymbolTableRecord
100
AcDbLinetypeTableRecord
  2
BYBLOCK
 70
     0
  3

 72
    65
 73
     0
 40
0.0
  0
LTYPE
  5
15
330
5
100
AcDbSymbolTableRecord
100
AcDbLinetypeTableRecord
  2
BYLAYER
 70
     0
  3

 72
    65
 73
     0
 40
0.0
  0
LTYPE
  5
16
330
5
100
AcDbSymbolTableRecord
100
AcDbLinetypeTableRecord
  2
CONTINUOUS
 70
     0
  3
Solid line
 72
    65
 73
     0
 40
0.0
  0
ENDTAB
  0
TABLE
  2
LAYER
  5
2
100
AcDbSymbolTable
 70
1
  0
LAYER
  5
50
100
AcDbSymbolTableRecord
100
AcDbLayerTableRecord
  2
0
 70
0
  6
CONTINUOUS
  0
ENDTAB
  0
TABLE
  2
STYLE
  5
3
330
0
100
AcDbSymbolTable
 70
     1
  0
STYLE
  5
11
330
3
100
AcDbSymbolTableRecord
100
AcDbTextStyleTableRecord
  2
STANDARD
 70
     0
 40
0.0
 41
1.0
 50
0.0
 71
     0
 42
2.5
  3
txt
  4

  0
ENDTAB
  0
TABLE
  2
VIEW
  5
6
330
0
100
AcDbSymbolTable
 70
     0
  0
ENDTAB
  0
TABLE
  2
UCS
  5
7
330
0
100
AcDbSymbolTable
 70
     0
  0
ENDTAB
  0
TABLE
  2
APPID
  5
9
330
0
100
AcDbSymbolTable
 70
     2
  0
APPID
  5
12
330
9
100
AcDbSymbolTableRecord
100
AcDbRegAppTableRecord
  2
ACAD
 70
     0
  0
ENDTAB
  0
TABLE
  2
DIMSTYLE
  5
A
330
0
100
AcDbSymbolTable
 70
     1
  0
DIMSTYLE
105
27
330
A
100
AcDbSymbolTableRecord
100
AcDbDimStyleTableRecord
  2
ISO-25
 70
     0
  3

  4

  5

  6

  7

 40
1.0
 41
2.5
 42
0.625
 43
3.75
 44
1.25
 45
0.0
 46
0.0
 47
0.0
 48
0.0
140
2.5
141
2.5
142
0.0
143
0.03937007874016
144
1.0
145
0.0
146
1.0
147
0.625
 71
     0
 72
     0
 73
     0
 74
     0
 75
     0
 76
     0
 77
     1
 78
     8
170
     0
171
     3
172
     1
173
     0
174
     0
175
     0
176
     0
177
     0
178
     0
270
     2
271
     2
272
     2
273
     2
274
     3
340
11
275
     0
280
     0
281
     0
282
     0
283
     0
284
     8
285
     0
286
     0
287
     3
288
     0
  0
ENDTAB
  0
TABLE
  2
BLOCK_RECORD
  5
1
330
0
100
AcDbSymbolTable
 70
     1
  0
BLOCK_RECORD
  5
1F
330
1
100
AcDbSymbolTableRecord
100
AcDbBlockTableRecord
  2
*MODEL_SPACE
  0
BLOCK_RECORD
  5
1B
330
1
100
AcDbSymbolTableRecord
100
AcDbBlockTableRecord
  2
*PAPER_SPACE
  0
ENDTAB
  0
ENDSEC
  0
SECTION
  2
BLOCKS
  0
BLOCK
  5
20
330
1F
100
AcDbEntity
  8
0
100
AcDbBlockBegin
  2
*MODEL_SPACE
 70
     0
 10
0.0
 20
0.0
 30
0.0
  3
*MODEL_SPACE
  1

  0
ENDBLK
  5
21
330
1F
100
AcDbEntity
  8
0
100
AcDbBlockEnd
  0
BLOCK
  5
1C
330
1B
100
AcDbEntity
 67
     1
  8
0
100
AcDbBlockBegin
  2
*PAPER_SPACE
  1

  0
ENDBLK
  5
1D
330
1B
100
AcDbEntity
 67
     1
  8
0
100
AcDbBlockEnd
  0
ENDSEC
  0
SECTION
  2
ENTITIES
  0
SPLINE
  5
100
100
AcDbEntity
  8
0
 62
7
100
AcDbSpline
 70
8
 71
3
 72
8
 73
4
 74
0
 40
0
 40
0
 40
0
 40
0
 40
1
 40
1
 40
1
 40
1
 10
26.522929
 20
61.090192
 30
0.0
 10
24.905944
 20
60.910953
 30
0.0
 10
23.166836
 20
60.616654
 30
0.0
 10
21.680330
 20
60.122809
 30
0.0
  0
SPLINE
  5
101
100
AcDbEntity
  8
0
 62
7
100
AcDbSpline
 70
8
 71
3
 72
8
 73
4
 74
0
 40
0
 40
0
 40
0
 40
0
 40
1
 40
1
 40
1
 40
1
 10
21.767150
 20
54.729340
 30
0.0
 10
20.513538
 20
54.111679
 30
0.0
 10
19.336139
 20
53.198298
 30
0.0
 10
18.270723
 20
52.373411
 30
0.0
  0
LWPOLYLINE
  5
102
100
AcDbEntity
  8
0
 62
7
100
AcDbPolyline
 90
2
 70
0
 10
21.680330
 20
60.122809
 30
0.0
 10
21.767150
 20
54.729340
 30
0.0
  0
SPLINE
  5
103
100
AcDbEntity
  8
0
 62
7
100
AcDbSpline
 70
8
 71
3
 72
8
 73
4
 74
0
 40
0
 40
0
 40
0
 40
0
 40
1
 40
1
 40
1
 40
1
 10
13.748998
 20
54.313260
 30
0.0
 10
13.749775
 20
54.315160
 30
0.0
 10
13.751098
 20
54.318260
 30
0.0
 10
13.751598
 20
54.320460
 30
0.0
  0
LWPOLYLINE
  5
104
100
AcDbEntity
  8
0
 62
7
100
AcDbPolyline
 90
6
 70
0
 10
18.270723
 20
52.373411
 30
0.0
 10
18.268623
 20
52.373927
 30
0.0
 10
18.268640
 20
52.371827
 30
0.0
 10
18.266540
 20
52.372343
 30
0.0
 10
18.266552
 20
52.370743
 30
0.0
 10
13.748998
 20
54.313260
 30
0.0
  0
SPLINE
  5
105
100
AcDbEntity
  8
0
 62
7
100
AcDbSpline
 70
8
 71
3
 72
8
 73
4
 74
0
 40
0
 40
0
 40
0
 40
0
 40
1
 40
1
 40
1
 40
1
 10
12.241612
 20
54.970033
 30
0.0
 10
7.091785
 20
42.545638
 30
0.0
 10
9.967430
 20
27.298769
 30
0.0
 10
19.374511
 20
17.658099
 30
0.0
  0
SPLINE
  5
106
100
AcDbEntity
  8
0
 62
7
100
AcDbSpline
 70
8
 71
3
 72
8
 73
4
 74
0
 40
0
 40
0
 40
0
 40
0
 40
1
 40
1
 40
1
 40
1
 10
19.374511
 20
17.658099
 30
0.0
 10
28.562924
 20
7.737524
 30
0.0
 10
43.725641
 20
4.093516
 30
0.0
 10
56.427546
 20
8.713941
 30
0.0
  0
SPLINE
  5
107
100
AcDbEntity
  8
0
 62
7
100
AcDbSpline
 70
8
 71
3
 72
8
 73
4
 74
0
 40
0
 40
0
 40
0
 40
0
 40
1
 40
1
 40
1
 40
1
 10
56.427546
 20
8.713941
 30
0.0
 10
65.868262
 20
11.918114
 30
0.0
 10
73.534980
 20
19.469690
 30
0.0
 10
77.315160
 20
28.614017
 30
0.0
  0
SPLINE
  5
108
100
AcDbEntity
  8
0
 62
7
100
AcDbSpline
 70
8
 71
3
 72
8
 73
4
 74
0
 40
0
 40
0
 40
0
 40
0
 40
1
 40
1
 40
1
 40
1
 10
77.315160
 20
28.614017
 30
0.0
 10
77.325730
 20
28.639567
 30
0.0
 10
77.336170
 20
28.665447
 30
0.0
 10
77.346680
 20
28.691017
 30
0.0
  0
LWPOLYLINE
  5
109
100
AcDbEntity
  8
0
 62
7
100
AcDbPolyline
 90
2
 70
0
 10
13.751598
 20
54.320460
 30
0.0
 10
12.241612
 20
54.970033
 30
0.0
  0
SPLINE
  5
10a
100
AcDbEntity
  8
0
 62
7
100
AcDbSpline
 70
8
 71
3
 72
8
 73
4
 74
0
 40
0
 40
0
 40
0
 40
0
 40
1
 40
1
 40
1
 40
1
 10
75.815970
 20
29.306508
 30
0.0
 10
75.814970
 20
29.303908
 30
0.0
 10
75.814370
 20
29.300808
 30
0.0
 10
75.813370
 20
29.298208
 30
0.0
  0
SPLINE
  5
10b
100
AcDbEntity
  8
0
 62
7
100
AcDbSpline
 70
8
 71
3
 72
8
 73
4
 74
0
 40
0
 40
0
 40
0
 40
0
 40
1
 40
1
 40
1
 40
1
 10
75.813370
 20
29.298208
 30
0.0
 10
75.812970
 20
29.297108
 30
0.0
 10
75.812270
 20
29.295208
 30
0.0
 10
75.811770
 20
29.294108
 30
0.0
  0
LWPOLYLINE
  5
10c
100
AcDbEntity
  8
0
 62
7
100
AcDbPolyline
 90
2
 70
0
 10
77.346680
 20
28.691017
 30
0.0
 10
75.815970
 20
29.306508
 30
0.0
  0
SPLINE
  5
10d
100
AcDbEntity
  8
0
 62
7
100
AcDbSpline
 70
8
 71
3
 72
8
 73
4
 74
0
 40
0
 40
0
 40
0
 40
0
 40
1
 40
1
 40
1
 40
1
 10
71.288019
 20
31.273830
 30
0.0
 10
70.193785
 20
30.396634
 30
0.0
 10
69.075272
 20
29.575050
 30
0.0
 10
67.765237
 20
28.939089
 30
0.0
  0
LWPOLYLINE
  5
10e
100
AcDbEntity
  8
0
 62
7
100
AcDbPolyline
 90
2
 70
0
 10
75.811770
 20
29.294108
 30
0.0
 10
71.288019
 20
31.273830
 30
0.0
  0
SPLINE
  5
10f
100
AcDbEntity
  8
0
 62
7
100
AcDbSpline
 70
8
 71
3
 72
8
 73
4
 74
0
 40
0
 40
0
 40
0
 40
0
 40
1
 40
1
 40
1
 40
1
 10
67.829827
 20
23.590578
 30
0.0
 10
66.156273
 20
23.035658
 30
0.0
 10
64.414793
 20
22.637624
 30
0.0
 10
62.617225
 20
22.577204
 30
0.0
  0
LWPOLYLINE
  5
110
100
AcDbEntity
  8
0
 62
7
100
AcDbPolyline
 90
2
 70
0
 10
67.765237
 20
28.939089
 30
0.0
 10
67.829827
 20
23.590578
 30
0.0
  0
SPLINE
  5
111
100
AcDbEntity
  8
0
 62
7
100
AcDbSpline
 70
8
 71
3
 72
8
 73
4
 74
0
 40
0
 40
0
 40
0
 40
0
 40
1
 40
1
 40
1
 40
1
 10
60.676400
 20
27.579574
 30
0.0
 10
59.439370
 20
27.765625
 30
0.0
 10
58.253760
 20
27.951454
 30
0.0
 10
56.970682
 20
28.348520
 30
0.0
  0
SPLINE
  5
112
100
AcDbEntity
  8
0
 62
7
100
AcDbSpline
 70
8
 71
3
 72
8
 73
4
 74
0
 40
0
 40
0
 40
0
 40
0
 40
1
 40
1
 40
1
 40
1
 10
56.970682
 20
28.348520
 30
0.0
 10
55.726049
 20
27.075561
 30
0.0
 10
54.476146
 20
25.810138
 30
0.0
 10
53.238094
 20
24.531699
 30
0.0
  0
SPLINE
  5
113
100
AcDbEntity
  8
0
 62
7
100
AcDbSpline
 70
8
 71
3
 72
8
 73
4
 74
0
 40
0
 40
0
 40
0
 40
0
 40
1
 40
1
 40
1
 40
1
 10
53.238094
 20
24.531699
 30
0.0
 10
51.536547
 20
25.345959
 30
0.0
 10
49.995008
 20
26.276377
 30
0.0
 10
48.608402
 20
27.661740
 30
0.0
  0
SPLINE
  5
114
100
AcDbEntity
  8
0
 62
7
100
AcDbSpline
 70
8
 71
3
 72
8
 73
4
 74
0
 40
0
 40
0
 40
0
 40
0
 40
1
 40
1
 40
1
 40
1
 10
48.608402
 20
27.661740
 30
0.0
 10
49.337725
 20
29.284784
 30
0.0
 10
50.045624
 20
30.917785
 30
0.0
 10
50.767960
 20
32.544646
 30
0.0
  0
SPLINE
  5
115
100
AcDbEntity
  8
0
 62
7
100
AcDbSpline
 70
8
 71
3
 72
8
 73
4
 74
0
 40
0
 40
0
 40
0
 40
0
 40
1
 40
1
 40
1
 40
1
 10
50.767960
 20
32.544646
 30
0.0
 10
50.021267
 20
33.534495
 30
0.0
 10
49.314145
 20
34.552123
 30
0.0
 10
48.663179
 20
35.695359
 30
0.0
  0
LWPOLYLINE
  5
116
100
AcDbEntity
  8
0
 62
7
100
AcDbPolyline
 90
2
 70
0
 10
62.617225
 20
22.577204
 30
0.0
 10
60.676400
 20
27.579574
 30
0.0
  0
SPLINE
  5
117
100
AcDbEntity
  8
0
 62
7
100
AcDbSpline
 70
8
 71
3
 72
8
 73
4
 74
0
 40
0
 40
0
 40
0
 40
0
 40
1
 40
1
 40
1
 40
1
 10
43.313118
 20
35.631279
 30
0.0
 10
42.777418
 20
37.270218
 30
0.0
 10
42.397102
 20
39.032725
 30
0.0
 10
42.299744
 20
40.804090
 30
0.0
  0
SPLINE
  5
118
100
AcDbEntity
  8
0
 62
7
100
AcDbSpline
 70
8
 71
3
 72
8
 73
4
 74
0
 40
0
 40
0
 40
0
 40
0
 40
1
 40
1
 40
1
 40
1
 10
42.299744
 20
40.804090
 30
0.0
 10
43.442723
 20
41.255873
 30
0.0
 10
44.591840
 20
41.722577
 30
0.0
 10
45.738810
 20
42.180750
 30
0.0
  0
SPLINE
  5
119
100
AcDbEntity
  8
0
 62
7
100
AcDbSpline
 70
8
 71
3
 72
8
 73
4
 74
0
 40
0
 40
0
 40
0
 40
0
 40
1
 40
1
 40
1
 40
1
 10
45.738810
 20
42.180750
 30
0.0
 10
45.744710
 20
42.183150
 30
0.0
 10
45.750970
 20
42.185050
 30
0.0
 10
45.756900
 20
42.187450
 30
0.0
  0
LWPOLYLINE
  5
11a
100
AcDbEntity
  8
0
 62
7
100
AcDbPolyline
 90
2
 70
0
 10
48.663179
 20
35.695359
 30
0.0
 10
43.313118
 20
35.631279
 30
0.0
  0
SPLINE
  5
11b
100
AcDbEntity
  8
0
 62
7
100
AcDbSpline
 70
8
 71
3
 72
8
 73
4
 74
0
 40
0
 40
0
 40
0
 40
0
 40
1
 40
1
 40
1
 40
1
 10
46.250444
 20
42.384252
 30
0.0
 10
46.586027
 20
42.517492
 30
0.0
 10
46.922083
 20
42.650487
 30
0.0
 10
47.257101
 20
42.781127
 30
0.0
  0
SPLINE
  5
11c
100
AcDbEntity
  8
0
 62
7
100
AcDbSpline
 70
8
 71
3
 72
8
 73
4
 74
0
 40
0
 40
0
 40
0
 40
0
 40
1
 40
1
 40
1
 40
1
 10
47.257101
 20
42.781127
 30
0.0
 10
47.207561
 20
44.657023
 30
0.0
 10
46.844778
 20
46.555223
 30
0.0
 10
46.150709
 20
48.267614
 30
0.0
  0
SPLINE
  5
11d
100
AcDbEntity
  8
0
 62
7
100
AcDbSpline
 70
8
 71
3
 72
8
 73
4
 74
0
 40
0
 40
0
 40
0
 40
0
 40
1
 40
1
 40
1
 40
1
 10
46.150709
 20
48.267614
 30
0.0
 10
44.371111
 20
48.223054
 30
0.0
 10
42.581102
 20
48.194084
 30
0.0
 10
40.800649
 20
48.158060
 30
0.0
  0
SPLINE
  5
11e
100
AcDbEntity
  8
0
 62
7
100
AcDbSpline
 70
8
 71
3
 72
8
 73
4
 74
0
 40
0
 40
0
 40
0
 40
0
 40
1
 40
1
 40
1
 40
1
 10
40.800649
 20
48.158060
 30
0.0
 10
40.183784
 20
49.262662
 30
0.0
 10
39.439729
 20
50.340986
 30
0.0
 10
38.695350
 20
51.285518
 30
0.0
  0
LWPOLYLINE
  5
11f
100
AcDbEntity
  8
0
 62
7
100
AcDbPolyline
 90
5
 70
0
 10
45.756900
 20
42.187450
 30
0.0
 10
46.254544
 20
42.381753
 30
0.0
 10
46.253044
 20
42.383253
 30
0.0
 10
46.252044
 20
42.383252
 30
0.0
 10
46.250444
 20
42.384252
 30
0.0
  0
SPLINE
  5
120
100
AcDbEntity
  8
0
 62
7
100
AcDbSpline
 70
8
 71
3
 72
8
 73
4
 74
0
 40
0
 40
0
 40
0
 40
0
 40
1
 40
1
 40
1
 40
1
 10
40.832171
 20
56.213899
 30
0.0
 10
39.405508
 20
57.429653
 30
0.0
 10
37.941729
 20
58.373094
 30
0.0
 10
36.386964
 20
59.135168
 30
0.0
  0
LWPOLYLINE
  5
121
100
AcDbEntity
  8
0
 62
7
100
AcDbPolyline
 90
2
 70
0
 10
38.695350
 20
51.285518
 30
0.0
 10
40.832171
 20
56.213899
 30
0.0
  0
SPLINE
  5
122
100
AcDbEntity
  8
0
 62
7
100
AcDbSpline
 70
8
 71
3
 72
8
 73
4
 74
0
 40
0
 40
0
 40
0
 40
0
 40
1
 40
1
 40
1
 40
1
 10
32.676596
 20
55.296643
 30
0.0
 10
31.323752
 20
55.712517
 30
0.0
 10
29.939380
 20
55.952193
 30
0.0
 10
28.555369
 20
56.087910
 30
0.0
  0
LWPOLYLINE
  5
123
100
AcDbEntity
  8
0
 62
7
100
AcDbPolyline
 90
2
 70
0
 10
36.386964
 20
59.135168
 30
0.0
 10
32.676596
 20
55.296643
 30
0.0
  0
LWPOLYLINE
  5
124
100
AcDbEntity
  8
0
 62
7
100
AcDbPolyline
 90
2
 70
0
 10
28.555369
 20
56.087910
 30
0.0
 10
26.522929
 20
61.090192
 30
0.0
  0
SPLINE
  5
125
100
AcDbEntity
  8
0
 62
7
100
AcDbSpline
 70
8
 71
3
 72
8
 73
4
 74
0
 40
0
 40
0
 40
0
 40
0
 40
1
 40
1
 40
1
 40
1
 10
17.791162
 20
27.169265
 30
0.0
 10
18.667843
 20
27.169084
 30
0.0
 10
19.378486
 20
26.456820
 30
0.0
 10
19.378662
 20
25.578147
 30
0.0
  0
SPLINE
  5
126
100
AcDbEntity
  8
0
 62
7
100
AcDbSpline
 70
8
 71
3
 72
8
 73
4
 74
0
 40
0
 40
0
 40
0
 40
0
 40
1
 40
1
 40
1
 40
1
 10
19.378662
 20
25.578147
 30
0.0
 10
19.378771
 20
24.699272
 30
0.0
 10
18.668044
 20
23.986694
 30
0.0
 10
17.791162
 20
23.986513
 30
0.0
  0
SPLINE
  5
127
100
AcDbEntity
  8
0
 62
7
100
AcDbSpline
 70
8
 71
3
 72
8
 73
4
 74
0
 40
0
 40
0
 40
0
 40
0
 40
1
 40
1
 40
1
 40
1
 10
17.791162
 20
23.986513
 30
0.0
 10
17.369977
 20
23.986462
 30
0.0
 10
16.966028
 20
24.154136
 30
0.0
 10
16.668205
 20
24.452637
 30
0.0
  0
SPLINE
  5
128
100
AcDbEntity
  8
0
 62
7
100
AcDbSpline
 70
8
 71
3
 72
8
 73
4
 74
0
 40
0
 40
0
 40
0
 40
0
 40
1
 40
1
 40
1
 40
1
 10
16.668205
 20
24.452637
 30
0.0
 10
16.370383
 20
24.751137
 30
0.0
 10
16.203092
 20
25.156005
 30
0.0
 10
16.203144
 20
25.578148
 30
0.0
  0
SPLINE
  5
129
100
AcDbEntity
  8
0
 62
7
100
AcDbSpline
 70
8
 71
3
 72
8
 73
4
 74
0
 40
0
 40
0
 40
0
 40
0
 40
1
 40
1
 40
1
 40
1
 10
16.203144
 20
25.578148
 30
0.0
 10
16.203320
 20
26.457024
 30
0.0
 10
16.914279
 20
27.169370
 30
0.0
 10
17.791162
 20
27.169265
 30
0.0
  0
LWPOLYLINE
  5
12a
100
AcDbEntity
  8
0
 62
7
100
AcDbPolyline
 90
12
 70
1
 10
26.024769
 20
48.361769
 30
0.0
 10
29.934089
 20
48.357669
 30
0.0
 10
29.929989
 20
44.180146
 30
0.0
 10
33.991758
 20
44.176046
 30
0.0
 10
33.987658
 20
40.154069
 30
0.0
 10
29.925890
 20
40.158169
 30
0.0
 10
29.921790
 20
35.980130
 30
0.0
 10
26.012468
 20
35.984230
 30
0.0
 10
26.016568
 20
40.162270
 30
0.0
 10
21.956350
 20
40.165870
 30
0.0
 10
21.960450
 20
44.187847
 30
0.0
 10
26.020669
 20
44.183747
 30
0.0
  0
SPLINE
  5
12b
100
AcDbEntity
  8
0
 62
7
100
AcDbSpline
 70
8
 71
3
 72
8
 73
4
 74
0
 40
0
 40
0
 40
0
 40
0
 40
1
 40
1
 40
1
 40
1
 10
60.304329
 20
15.786496
 30
0.0
 10
61.181212
 20
15.786601
 30
0.0
 10
61.892170
 20
15.074254
 30
0.0
 10
61.892346
 20
14.195378
 30
0.0
  0
SPLINE
  5
12c
100
AcDbEntity
  8
0
 62
7
100
AcDbSpline
 70
8
 71
3
 72
8
 73
4
 74
0
 40
0
 40
0
 40
0
 40
0
 40
1
 40
1
 40
1
 40
1
 10
61.892346
 20
14.195378
 30
0.0
 10
61.892398
 20
13.773236
 30
0.0
 10
61.725107
 20
13.368368
 30
0.0
 10
61.427285
 20
13.069868
 30
0.0
  0
SPLINE
  5
12d
100
AcDbEntity
  8
0
 62
7
100
AcDbSpline
 70
8
 71
3
 72
8
 73
4
 74
0
 40
0
 40
0
 40
0
 40
0
 40
1
 40
1
 40
1
 40
1
 10
61.427285
 20
13.069868
 30
0.0
 10
61.129463
 20
12.771367
 30
0.0
 10
60.725514
 20
12.603694
 30
0.0
 10
60.304329
 20
12.603744
 30
0.0
  0
SPLINE
  5
12e
100
AcDbEntity
  8
0
 62
7
100
AcDbSpline
 70
8
 71
3
 72
8
 73
4
 74
0
 40
0
 40
0
 40
0
 40
0
 40
1
 40
1
 40
1
 40
1
 10
60.304329
 20
12.603744
 30
0.0
 10
59.427447
 20
12.603925
 30
0.0
 10
58.716720
 20
13.316503
 30
0.0
 10
58.716829
 20
14.195378
 30
0.0
  0
SPLINE
  5
12f
100
AcDbEntity
  8
0
 62
7
100
AcDbSpline
 70
8
 71
3
 72
8
 73
4
 74
0
 40
0
 40
0
 40
0
 40
0
 40
1
 40
1
 40
1
 40
1
 10
58.716829
 20
14.195378
 30
0.0
 10
58.717005
 20
15.074051
 30
0.0
 10
59.427648
 20
15.786315
 30
0.0
 10
60.304329
 20
15.786496
 30
0.0
  0
LWPOLYLINE
  5
130
100
AcDbEntity
  8
0
 62
7
100
AcDbPolyline
 90
1
 70
1
 10
17.791162
 20
27.169265
 30
0.0
  0
LWPOLYLINE
  5
131
100
AcDbEntity
  8
0
 62
7
100
AcDbPolyline
 90
1
 70
1
 10
60.304329
 20
15.786496
 30
0.0
  0
ENDSEC
  0
SECTION
  2
OBJECTS
  0
DICTIONARY
  5
C
330
0
100
AcDbDictionary
  3
ACAD_GROUP
350
D
  3
ACAD_MLINESTYLE
350
17
  0
DICTIONARY
  5
D
330
C
100
AcDbDictionary
  0
DICTIONARY
  5
1A
330
C
100
AcDbDictionary
  0
DICTIONARY
  5
17
330
C
100
AcDbDictionary
  3
STANDARD
350
18
  0
DICTIONARY
  5
19
330
C
100
AcDbDictionary
  0
ENDSEC
  0
EOF
