<?xml version="1.0" encoding="UTF-8" standalone="no"?>
<!-- Created with Inkscape (http://www.inkscape.org/) -->

<svg
   width="72.000702mm"
   height="72mm"
   viewBox="0 0 255.12059 255.11811"
   id="svg5152"
   version="1.1"
   inkscape:version="1.4.2 (ebf0e940d0, 2025-05-08)"
   sodipodi:docname="hackeriet_editing.svg"
   xml:space="preserve"
   xmlns:inkscape="http://www.inkscape.org/namespaces/inkscape"
   xmlns:sodipodi="http://sodipodi.sourceforge.net/DTD/sodipodi-0.dtd"
   xmlns="http://www.w3.org/2000/svg"
   xmlns:svg="http://www.w3.org/2000/svg"
   xmlns:rdf="http://www.w3.org/1999/02/22-rdf-syntax-ns#"
   xmlns:cc="http://creativecommons.org/ns#"
   xmlns:dc="http://purl.org/dc/elements/1.1/"><defs
     id="defs5154" /><sodipodi:namedview
     id="base"
     pagecolor="#208653"
     bordercolor="#666666"
     borderopacity="1.0"
     inkscape:pageopacity="0"
     inkscape:pageshadow="2"
     inkscape:zoom="2.4833591"
     inkscape:cx="51.341749"
     inkscape:cy="191.07184"
     inkscape:document-units="px"
     inkscape:current-layer="g5127"
     showgrid="false"
     fit-margin-top="0"
     fit-margin-left="0"
     fit-margin-right="0"
     fit-margin-bottom="0"
     inkscape:window-width="2556"
     inkscape:window-height="1418"
     inkscape:window-x="0"
     inkscape:window-y="0"
     inkscape:window-maximized="1"
     inkscape:showpageshadow="2"
     inkscape:pagecheckerboard="0"
     inkscape:deskcolor="#d1d1d1" /><metadata
     id="metadata5157"><rdf:RDF><cc:Work
         rdf:about=""><dc:format>image/svg+xml</dc:format><dc:type
           rdf:resource="http://purl.org/dc/dcmitype/StillImage" /></cc:Work></rdf:RDF></metadata><g
     inkscape:label="Layer 1"
     inkscape:groupmode="layer"
     id="layer1"
     transform="translate(-345.38361,-398.06802)"><g
       transform="matrix(10,0,0,10,-0.42423743,51.912222)"
       style="display:inline;opacity:1;enable-background:new"
       id="g5127"><path
         id="path1366"
         style="display:inline;fill:#ffffff;fill-opacity:1;stroke:none;stroke-width:0.255097;enable-background:new"
         d="m 47.248019,34.894157 c -0.06646,2e-6 -0.132819,5.08e-4 -0.199034,0.0015 0.06621,3.31e-4 0.132535,0.0012 0.199314,0.0021 0.344146,-0.0018 0.684901,0.04369 1.027193,0.07142 -0.341813,-0.02809 -0.678399,-0.07502 -1.027472,-0.07502 z m 3.537468,0.512076 c 1.14087,0.337659 2.233387,0.837221 3.233712,1.481728 -0.989774,-0.640255 -2.077469,-1.140653 -3.233712,-1.481728 z m -7.504943,0.131397 c -1.783827,0.59736 -3.387809,1.586503 -4.709646,2.865219 1.336783,-1.281124 2.957175,-2.268807 4.709646,-2.865219 z m -2.683759,4.834544 c -0.587675,0.06574 -1.219465,0.173405 -1.7596,0.353453 l 0.03368,1.960641 c -0.455831,0.225161 -0.884127,0.557862 -1.271345,0.858292 l -1.784873,-0.765715 c -0.111894,0.126747 -0.218551,0.25822 -0.320107,0.393341 0.0269,-0.07709 0.05469,-0.153884 0.08342,-0.230328 -0.02912,0.07674 -0.0572,0.153938 -0.08436,0.23159 -0.125155,0.166597 -0.242589,0.338697 -0.35252,0.514182 -0.08609,0.283737 -0.152589,0.574933 -0.218882,0.866746 l 0.147131,0.140038 c -0.190116,0.860952 -0.298663,1.752319 -0.298662,2.670489 3e-6,0.05709 4.06e-4,0.114104 0.0012,0.171 -0.05367,0.02163 -0.107388,0.04318 -0.16115,0.0646 0.01374,0.745895 0.08981,1.479194 0.227337,2.187884 0.05573,-0.0013 0.111475,-0.0027 0.167271,-0.0039 1.12683,5.72991 6.179095,10.051181 12.24271,10.051184 5.418633,0 10.029653,-3.450841 11.753426,-8.274021 -0.105356,0.140998 -0.215267,0.279413 -0.32851,0.414595 l -1.79328,-0.782574 c -0.397409,0.319246 -0.803814,0.618244 -1.279755,0.84988 l 0.02527,1.943825 c -0.608099,0.202313 -1.241002,0.347647 -1.894359,0.370265 L 53.023645,52.54003 c -0.449706,-0.06717 -0.880593,-0.133835 -1.34711,-0.277687 -0.451933,0.463148 -0.905931,0.923306 -1.35547,1.388445 -0.618774,-0.295345 -1.179376,-0.632935 -1.683886,-1.135981 0.2645,-0.590209 0.521039,-1.183935 0.782997,-1.775529 -0.271768,-0.359516 -0.529101,-0.729131 -0.766132,-1.14444 l -1.944855,0.02528 c -0.195328,-0.595558 -0.33373,-1.236303 -0.369753,-1.880161 0.412655,-0.163584 0.827242,-0.332342 1.241358,-0.498206 l 0.0019,-7.3e-4 0.1937,-0.07562 c -4.43e-4,-3.89e-4 -9.48e-4,-7.23e-4 -0.0014,-0.0012 0.121901,-0.04852 0.243756,-0.09668 0.365453,-0.144288 -0.0187,-0.681801 -0.151232,-1.372124 -0.404139,-1.994288 -0.646831,0.01685 -1.297708,0.02834 -1.944854,0.04209 C 45.56683,44.66647 45.296243,44.27476 45.025325,43.931716 l 0.774489,-1.792354 C 45.2808,41.69793 44.748728,41.355475 44.183325,41.079046 l -1.347053,1.396888 C 42.344401,42.325302 41.840747,42.238661 41.33764,42.189835 Z m 17.642541,1.084601 c 0.594707,1.117603 1.018392,2.326525 1.257424,3.570678 l 0.0098,-1.43e-4 C 59.26597,43.758531 58.833077,42.557871 58.239377,41.456673 Z m -17.818496,3.541904 1.420819,2e-6 -2e-6,1.518811 1.476074,-3e-6 0,1.461782 -1.476075,-10e-7 2e-6,1.518723 -1.420815,-10e-7 -4e-6,-1.51872 -1.476069,0 -4e-6,-1.461734 1.476074,-1e-6 z m 11.063337,1.514938 10e-7,1.469439 3.802216,0 -10e-7,-1.469442 z m 8.23964,0.654353 -9.45e-4,3.61e-4 c 0.01178,0.591321 -0.02906,1.182615 -0.102575,1.769691 0.06505,-0.51594 0.105097,-1.039539 0.105097,-1.573139 0,-0.06576 -5.26e-4,-0.131411 -0.0015,-0.196921 z m -0.315336,2.990265 c -0.0035,0.01507 -0.0083,0.02981 -0.01191,0.04489 l 0.0035,0.0035 c 0.0037,-0.0158 0.0048,-0.03253 0.0084,-0.04834 z" /><path
         id="path9351"
         style="color:#000000;font-family:Sans;-inkscape-font-specification:Sans;display:inline;visibility:visible;fill:#ff2a2a;fill-opacity:1;stroke:none;stroke-width:0.357037;marker:none"
         d="m 40.959288,36.325583 c -6.099999,3.521835 -8.19193,11.320685 -4.671954,17.417461 3.519976,6.096778 11.326872,8.196182 17.426873,4.674342 4.193748,-2.421261 6.490064,-6.869572 6.371783,-11.394538 -0.05376,-2.056802 -0.606361,-4.129345 -1.706353,-6.03459 -1.099992,-1.905243 -2.618225,-3.418765 -4.371693,-4.49216 -1.928814,-1.180733 -4.142516,-1.828822 -6.39827,-1.878881 -2.255754,-0.05006 -4.553511,0.497735 -6.650386,1.708366 z m 0.303223,0.525198 c 1.999721,-1.15454 4.190023,-1.678397 6.339755,-1.632627 2.149731,0.04577 4.258777,0.661317 6.096765,1.785494 1.670898,1.02198 3.117799,2.464273 4.166826,4.281241 1.049026,1.81697 1.575603,3.79212 1.626124,5.751711 0.104735,4.062234 -1.835788,8.057289 -5.406212,10.436824 l -0.490539,-0.849639 -1.374837,0.793762 0.490539,0.84964 c -1.471055,0.72756 -3.027538,1.130426 -4.582838,1.231846 l 6.5e-5,-0.939219 -1.587613,5.2e-5 -2.3e-5,0.938559 c -1.592144,-0.104657 -3.151376,-0.521298 -4.583192,-1.224577 l 0.478453,-0.82913 -1.374637,-0.793784 -0.480125,0.831363 c -1.298821,-0.864789 -2.447344,-1.992038 -3.358861,-3.358611 l 0.82395,-0.475708 -0.794012,-1.374904 -0.824334,0.476141 c -0.711457,-1.437934 -1.111466,-2.957197 -1.222541,-4.476998 l 0.97097,1.27e-4 -5.1e-5,-1.587613 -0.982847,1.75e-4 c 0.230155,-3.947627 2.383885,-7.706399 6.069215,-9.834125 z" /></g></g></svg>
