999
"DXF R12 Output" (www.mydxf.blogspot.com)
 0 
SECTION
 2 
HEADER
 9 
$ACADVER
 1 
AC1009
 9 
$EXTMIN
 10 
 0 
 20 
 0 
 9 
$EXTMAX
 10 
 8.5 
 20 
 11 
 0 
ENDSEC
 0 
SECTION
 2 
ENTITIES
0
POLYLINE
8
Layer 1
62
7
70
0
10
0.000000
20
0.000000
66
1
0
VERTEX
8
Layer 1
10
26.522825
20
61.090159
70
0
0
VERTEX
8
Layer 1
10
24.052592
20
60.724442
70
0
0
VERTEX
8
Layer 1
10
21.680219
20
60.122771
70
0
0
VERTEX
8
Layer 1
10
21.767040
20
54.729293
70
0
0
VERTEX
8
Layer 1
10
19.948251
20
53.629035
70
0
0
VERTEX
8
Layer 1
10
18.270609
20
52.373358
70
0
0
VERTEX
8
Layer 1
10
18.268542
20
52.373875
70
0
0
VERTEX
8
Layer 1
10
18.268542
20
52.371808
70
0
0
VERTEX
8
Layer 1
10
18.266475
20
52.372325
70
0
0
VERTEX
8
Layer 1
10
18.266476
20
52.370774
70
0
0
VERTEX
8
Layer 1
10
13.748913
20
54.313290
70
0
0
VERTEX
8
Layer 1
10
13.751497
20
54.320525
70
0
0
VERTEX
8
Layer 1
10
12.241508
20
54.970098
70
0
0
VERTEX
8
Layer 1
10
11.369600
20
52.609501
70
0
0
VERTEX
8
Layer 1
10
10.683600
20
50.195100
70
0
0
VERTEX
8
Layer 1
10
10.181321
20
47.739240
70
0
0
VERTEX
8
Layer 1
10
9.860574
20
45.254269
70
0
0
VERTEX
8
Layer 1
10
9.719169
20
42.752532
70
0
0
VERTEX
8
Layer 1
10
9.754920
20
40.246378
70
0
0
VERTEX
8
Layer 1
10
9.965636
20
37.748152
70
0
0
VERTEX
8
Layer 1
10
10.349131
20
35.270202
70
0
0
VERTEX
8
Layer 1
10
10.903214
20
32.824873
70
0
0
VERTEX
8
Layer 1
10
11.625697
20
30.424513
70
0
0
VERTEX
8
Layer 1
10
12.514393
20
28.081469
70
0
0
VERTEX
8
Layer 1
10
13.567111
20
25.808087
70
0
0
VERTEX
8
Layer 1
10
14.781665
20
23.616713
70
0
0
VERTEX
8
Layer 1
10
16.155865
20
21.519695
70
0
0
VERTEX
8
Layer 1
10
17.687523
20
19.529379
70
0
0
VERTEX
8
Layer 1
10
19.374449
20
17.658112
70
0
0
VERTEX
8
Layer 1
10
21.165233
20
15.872042
70
0
0
VERTEX
8
Layer 1
10
23.083684
20
14.235991
70
0
0
VERTEX
8
Layer 1
10
25.117445
20
12.752871
70
0
0
VERTEX
8
Layer 1
10
27.254160
20
11.425595
70
0
0
VERTEX
8
Layer 1
10
29.481474
20
10.257073
70
0
0
VERTEX
8
Layer 1
10
31.787029
20
9.250219
70
0
0
VERTEX
8
Layer 1
10
34.158471
20
8.407943
70
0
0
VERTEX
8
Layer 1
10
36.583443
20
7.733158
70
0
0
VERTEX
8
Layer 1
10
39.049588
20
7.228775
70
0
0
VERTEX
8
Layer 1
10
41.544550
20
6.897708
70
0
0
VERTEX
8
Layer 1
10
44.055974
20
6.742866
70
0
0
VERTEX
8
Layer 1
10
46.571503
20
6.767163
70
0
0
VERTEX
8
Layer 1
10
49.078782
20
6.973510
70
0
0
VERTEX
8
Layer 1
10
51.565453
20
7.364820
70
0
0
VERTEX
8
Layer 1
10
54.019161
20
7.944003
70
0
0
VERTEX
8
Layer 1
10
56.427549
20
8.713973
70
0
0
VERTEX
8
Layer 1
10
59.880540
20
10.113947
70
0
0
VERTEX
8
Layer 1
10
63.142461
20
11.889210
70
0
0
VERTEX
8
Layer 1
10
66.188556
20
14.007480
70
0
0
VERTEX
8
Layer 1
10
68.994070
20
16.436476
70
0
0
VERTEX
8
Layer 1
10
71.534245
20
19.143917
70
0
0
VERTEX
8
Layer 1
10
73.784326
20
22.097521
70
0
0
VERTEX
8
Layer 1
10
75.719556
20
25.265009
70
0
0
VERTEX
8
Layer 1
10
77.315178
20
28.614097
70
0
0
VERTEX
8
Layer 1
10
77.346701
20
28.691095
70
0
0
VERTEX
8
Layer 1
10
75.816042
20
29.306561
70
0
0
VERTEX
8
Layer 1
10
75.813458
20
29.298293
70
0
0
VERTEX
8
Layer 1
10
75.811908
20
29.294159
70
0
0
VERTEX
8
Layer 1
10
71.288144
20
31.273882
70
0
0
VERTEX
8
Layer 1
10
69.607677
20
30.016045
70
0
0
VERTEX
8
Layer 1
10
67.765359
20
28.939135
70
0
0
VERTEX
8
Layer 1
10
67.829959
20
23.590616
70
0
0
VERTEX
8
Layer 1
10
65.270160
20
22.898487
70
0
0
VERTEX
8
Layer 1
10
62.617350
20
22.577235
70
0
0
VERTEX
8
Layer 1
10
60.676376
20
27.579520
70
0
0
VERTEX
8
Layer 1
10
58.840782
20
27.884861
70
0
0
VERTEX
8
Layer 1
10
56.970653
20
28.348463
70
0
0
VERTEX
8
Layer 1
10
53.238061
20
24.531633
70
0
0
VERTEX
8
Layer 1
10
50.805108
20
25.882490
70
0
0
VERTEX
8
Layer 1
10
49.677446
20
26.702661
70
0
0
VERTEX
8
Layer 1
10
48.608360
20
27.661675
70
0
0
VERTEX
8
Layer 1
10
50.767917
20
32.544591
70
0
0
VERTEX
8
Layer 1
10
48.663130
20
35.695306
70
0
0
VERTEX
8
Layer 1
10
43.313061
20
35.631222
70
0
0
VERTEX
8
Layer 1
10
42.641992
20
38.167971
70
0
0
VERTEX
8
Layer 1
10
42.299680
20
40.804040
70
0
0
VERTEX
8
Layer 1
10
45.738751
20
42.180706
70
0
0
VERTEX
8
Layer 1
10
45.756838
20
42.187423
70
0
0
VERTEX
8
Layer 1
10
46.254483
20
42.381728
70
0
0
VERTEX
8
Layer 1
10
46.252932
20
42.383278
70
0
0
VERTEX
8
Layer 1
10
46.251899
20
42.383278
70
0
0
VERTEX
8
Layer 1
10
46.250348
20
42.384311
70
0
0
VERTEX
8
Layer 1
10
47.257007
20
42.781188
70
0
0
VERTEX
8
Layer 1
10
46.945506
20
45.585750
70
0
0
VERTEX
8
Layer 1
10
46.150608
20
48.267682
70
0
0
VERTEX
8
Layer 1
10
40.800539
20
48.158123
70
0
0
VERTEX
8
Layer 1
10
39.795705
20
49.781880
70
0
0
VERTEX
8
Layer 1
10
38.695235
20
51.285584
70
0
0
VERTEX
8
Layer 1
10
40.832055
20
56.213975
70
0
0
VERTEX
8
Layer 1
10
38.657485
20
57.844740
70
0
0
VERTEX
8
Layer 1
10
36.386838
20
59.135245
70
0
0
VERTEX
8
Layer 1
10
32.676468
20
55.296710
70
0
0
VERTEX
8
Layer 1
10
30.627567
20
55.797313
70
0
0
VERTEX
8
Layer 1
10
28.555266
20
56.087874
70
0
0
VERTEX
8
Layer 1
10
26.522825
20
61.090159
70
0
0
VERTEX
8
Layer 1
10
26.522825
20
61.090159
70
0
0
SEQEND
8
Layer 1
0
POLYLINE
8
Layer 1
62
7
70
0
10
0.000000
20
0.000000
66
1
0
VERTEX
8
Layer 1
10
26.024674
20
48.361716
70
0
0
VERTEX
8
Layer 1
10
29.934001
20
48.357586
70
0
0
VERTEX
8
Layer 1
10
29.929870
20
44.180057
70
0
0
VERTEX
8
Layer 1
10
33.991646
20
44.175925
70
0
0
VERTEX
8
Layer 1
10
33.987515
20
40.153943
70
0
0
VERTEX
8
Layer 1
10
29.925741
20
40.158073
70
0
0
VERTEX
8
Layer 1
10
29.921610
20
35.980027
70
0
0
VERTEX
8
Layer 1
10
26.012282
20
35.984158
70
0
0
VERTEX
8
Layer 1
10
26.016412
20
40.162204
70
0
0
VERTEX
8
Layer 1
10
21.956188
20
40.165819
70
0
0
VERTEX
8
Layer 1
10
21.960319
20
44.187801
70
0
0
VERTEX
8
Layer 1
10
26.020544
20
44.183670
70
0
0
VERTEX
8
Layer 1
10
26.024674
20
48.361716
70
0
0
VERTEX
8
Layer 1
10
26.024674
20
48.361716
70
0
0
SEQEND
8
Layer 1
0
POLYLINE
8
Layer 1
62
7
70
0
10
0.000000
20
0.000000
66
1
0
VERTEX
8
Layer 1
10
17.791074
20
27.169173
70
0
0
VERTEX
8
Layer 1
10
18.408946
20
27.044048
70
0
0
VERTEX
8
Layer 1
10
18.913515
20
26.703048
70
0
0
VERTEX
8
Layer 1
10
19.253739
20
26.197332
70
0
0
VERTEX
8
Layer 1
10
19.378577
20
25.578054
70
0
0
VERTEX
8
Layer 1
10
19.253888
20
24.958610
70
0
0
VERTEX
8
Layer 1
10
18.913699
20
24.452724
70
0
0
VERTEX
8
Layer 1
10
18.409073
20
24.111594
70
0
0
VERTEX
8
Layer 1
10
17.791075
20
23.986416
70
0
0
VERTEX
8
Layer 1
10
17.183335
20
24.107521
70
0
0
VERTEX
8
Layer 1
10
16.668117
20
24.452540
70
0
0
VERTEX
8
Layer 1
10
16.323882
20
24.968930
70
0
0
VERTEX
8
Layer 1
10
16.203054
20
25.578052
70
0
0
VERTEX
8
Layer 1
10
16.327945
20
26.197456
70
0
0
VERTEX
8
Layer 1
10
16.668298
20
26.703231
70
0
0
VERTEX
8
Layer 1
10
17.173035
20
27.044196
70
0
0
VERTEX
8
Layer 1
10
17.791074
20
27.169173
70
0
0
VERTEX
8
Layer 1
10
17.791074
20
27.169173
70
0
0
SEQEND
8
Layer 1
0
POLYLINE
8
Layer 1
62
7
70
0
10
0.000000
20
0.000000
66
1
0
VERTEX
8
Layer 1
10
60.304315
20
15.786422
70
0
0
VERTEX
8
Layer 1
10
60.922354
20
15.661447
70
0
0
VERTEX
8
Layer 1
10
61.427090
20
15.320481
70
0
0
VERTEX
8
Layer 1
10
61.767444
20
14.814707
70
0
0
VERTEX
8
Layer 1
10
61.892335
20
14.195304
70
0
0
VERTEX
8
Layer 1
10
61.771508
20
13.586182
70
0
0
VERTEX
8
Layer 1
10
61.427274
20
13.069791
70
0
0
VERTEX
8
Layer 1
10
60.912057
20
12.724772
70
0
0
VERTEX
8
Layer 1
10
60.304317
20
12.603666
70
0
0
VERTEX
8
Layer 1
10
59.686319
20
12.728843
70
0
0
VERTEX
8
Layer 1
10
59.181694
20
13.069973
70
0
0
VERTEX
8
Layer 1
10
58.841504
20
13.575858
70
0
0
VERTEX
8
Layer 1
10
58.716814
20
14.195301
70
0
0
VERTEX
8
Layer 1
10
58.841651
20
14.814579
70
0
0
VERTEX
8
Layer 1
10
59.181874
20
15.320296
70
0
0
VERTEX
8
Layer 1
10
59.686442
20
15.661296
70
0
0
VERTEX
8
Layer 1
10
60.304315
20
15.786422
70
0
0
VERTEX
8
Layer 1
10
60.304315
20
15.786422
70
0
0
SEQEND
8
Layer 1
 0 
ENDSEC
 0 
EOF