<?xml version="1.0" encoding="UTF-8" standalone="no"?>
<!-- Created with Inkscape (http://www.inkscape.org/) -->

<svg
   width="210mm"
   height="297mm"
   viewBox="0 0 210 297"
   version="1.1"
   id="svg1"
   xml:space="preserve"
   sodipodi:docname="hackeriet_edited2.svg"
   inkscape:version="1.4.2 (ebf0e940d0, 2025-05-08)"
   xmlns:inkscape="http://www.inkscape.org/namespaces/inkscape"
   xmlns:sodipodi="http://sodipodi.sourceforge.net/DTD/sodipodi-0.dtd"
   xmlns="http://www.w3.org/2000/svg"
   xmlns:svg="http://www.w3.org/2000/svg"><sodipodi:namedview
     id="namedview1"
     pagecolor="#ffffff"
     bordercolor="#000000"
     borderopacity="0.25"
     inkscape:showpageshadow="2"
     inkscape:pageopacity="0.0"
     inkscape:pagecheckerboard="0"
     inkscape:deskcolor="#d1d1d1"
     inkscape:document-units="mm"
     showgrid="false"
     showguides="false"
     inkscape:zoom="8"
     inkscape:cx="302"
     inkscape:cy="461.5625"
     inkscape:window-width="2556"
     inkscape:window-height="1418"
     inkscape:window-x="0"
     inkscape:window-y="0"
     inkscape:window-maximized="1"
     inkscape:current-layer="g4515" /><defs
     id="defs1" /><g
     inkscape:label="Layer 1"
     inkscape:groupmode="layer"
     id="layer1"><g
       style="enable-background:new"
       id="g1"
       transform="matrix(0.26458333,0,0,0.26458333,91.28125,134.67292)"><g
         id="layer2"
         inkscape:label="YingYang"
         style="display:inline"
         transform="translate(36.417288,4.4305543)" /><g
         id="layer1-3"
         inkscape:label="Tannhjul"
         style="display:inline"
         transform="translate(2.000002,2.0000043)" /><g
         id="layer3"
         inkscape:label="Plus/minus"
         style="display:inline"
         transform="translate(36.417288,4.4305543)" /><g
         id="layer4"
         inkscape:label="Topp-sirkel"
         style="display:inline"
         transform="translate(4.657385,4.6383743)"><g
           id="g4515"><path
             d="m -70.362206,-91.35084 c -2.30373,0.25771 -4.781077,0.67896 -6.898437,1.38476 l 0.130859,7.68555 c -1.785339,0.881879 -3.461626,2.184445 -4.978516,3.361328 0,0 -0.002,0 -0.002,0 0,0 0,0.002 0,0.002 0,0 -0.002,0 -0.002,0 0,0 0,0.002 0,0.002 l -6.439453,-2.761719 c 0.0012,-0.003 0.0027,-0.0068 0.0039,-0.0098 l -2.152344,-0.923829 c -7.31998,17.710489 -3.200873,39.431144 10.216797,53.154298 13.10649,14.122302 34.716716,19.293124 52.808595,12.691406 13.44669,-4.578508 24.3592966,-15.349903 29.7324214,-28.384766 0.015013,-0.03642 0.029996,-0.07292 0.044922,-0.109375 l -2.18164057,-0.875 c -0.00145,0.0036 -0.00246,0.0081 -0.00391,0.01172 -6.22e-4,0.0016 -0.00133,0.0043 -0.00195,0.0059 l -6.44911823,-2.814554 c -1.557879,1.251457 -3.149913,2.423993 -5.0156246,3.332032 l 0.09961,7.621094 c -2.383792,0.793089 -4.864574,1.362501 -7.425781,1.451171 l -2.773438,-7.125 c -1.762868,-0.263322 -3.452467,-0.52592 -5.28125,-1.089843 -1.771608,1.815582 -3.550276,3.619978 -5.3125,5.443359 -2.425643,-1.157769 -4.623847,-2.481157 -6.601562,-4.453125 1.03686,-2.313665 2.043416,-4.641843 3.070312,-6.960938 -1.065357,-1.40933 -2.074728,-2.858304 -3.003906,-4.486328 l -7.623047,0.09961 c -0.765653,-2.334498 -1.309906,-4.845323 -1.451172,-7.369141 1.627944,-0.64537 3.264817,-1.312316 4.898438,-1.966797 0.0084,-0.0034 0.01695,-0.0064 0.02539,-0.0098 l 0.708985,-0.277343 -0.002,-0.002 h -0.002 l -0.002,-0.002 c 0.477969,-0.19033 0.956426,-0.37978 1.433594,-0.566406 -0.07328,-2.672828 -0.592572,-5.37748 -1.583984,-7.816406 -2.535626,0.06604 -5.086196,0.110172 -7.623047,0.164062 -0.880538,-1.573032 -1.94191,-3.108363 -3.003907,-4.453125 l 3.03711,-7.025391 c -2.03455,-1.730246 -4.121468,-3.072633 -6.337891,-4.15625 l -5.28125,5.47461 c -1.92817,-0.590488 -3.900817,-0.929698 -5.873047,-1.121094 z m -0.691406,18.136716 h 5.570312 v 5.953125 h 5.78711 v 5.730469 h -5.78711 v 5.953125 h -5.570312 v -5.953125 h -5.785156 v -5.730469 h 5.785156 z"
             style="display:inline;fill:#1a1a1a;enable-background:new"
             id="path2" /></g></g></g></g></svg>
