<?xml version="1.0" encoding="UTF-8" standalone="no"?>
<!-- Created with Inkscape (http://www.inkscape.org/) -->

<svg
   width="210mm"
   height="297mm"
   viewBox="0 0 210 297"
   version="1.1"
   id="svg1"
   xml:space="preserve"
   sodipodi:docname="hackeriet_edited.svg"
   inkscape:version="1.4.2 (ebf0e940d0, 2025-05-08)"
   xmlns:inkscape="http://www.inkscape.org/namespaces/inkscape"
   xmlns:sodipodi="http://sodipodi.sourceforge.net/DTD/sodipodi-0.dtd"
   xmlns="http://www.w3.org/2000/svg"
   xmlns:svg="http://www.w3.org/2000/svg"><sodipodi:namedview
     id="namedview1"
     pagecolor="#ffffff"
     bordercolor="#000000"
     borderopacity="0.25"
     inkscape:showpageshadow="2"
     inkscape:pageopacity="0.0"
     inkscape:pagecheckerboard="0"
     inkscape:deskcolor="#d1d1d1"
     inkscape:document-units="mm"
     showgrid="false"
     showguides="false"
     inkscape:zoom="11.313708"
     inkscape:cx="295.92419"
     inkscape:cy="449.32217"
     inkscape:window-width="2560"
     inkscape:window-height="1440"
     inkscape:window-x="0"
     inkscape:window-y="0"
     inkscape:window-maximized="1"
     inkscape:current-layer="g4515" /><defs
     id="defs1" /><g
     inkscape:label="Layer 1"
     inkscape:groupmode="layer"
     id="layer1"><g
       style="enable-background:new"
       id="g1"
       transform="matrix(0.26458333,0,0,0.26458333,91.28125,134.67292)"><g
         id="layer2"
         inkscape:label="YingYang"
         style="display:inline"
         transform="translate(36.417288,4.4305543)" /><g
         id="layer1-3"
         inkscape:label="Tannhjul"
         style="display:inline"
         transform="translate(2.000002,2.0000043)" /><g
         id="layer3"
         inkscape:label="Plus/minus"
         style="display:inline"
         transform="translate(36.417288,4.4305543)" /><g
         id="layer4"
         inkscape:label="Topp-sirkel"
         style="display:inline"
         transform="translate(4.657385,4.6383743)"><g
           id="g4515"><path
             inkscape:connector-curvature="0"
             id="path9351-6"
             d="m -56.492978,-107.31694 c -27.385677,0 -49.581402,22.129053 -49.581402,49.500263 0,27.371213 22.195725,49.5552055 49.581402,49.5552055 27.385677,0 49.5813947,-22.1839925 49.5813947,-49.5552055 0,-27.37121 -22.1957177,-49.500263 -49.5813947,-49.500263 z m 0,-2.47227 c 28.716179,0 51.9999967,23.271524 51.9999967,51.972534 0,28.701008 -23.2838177,52.0274755 -51.9999967,52.0274755 -28.716181,0 -52.000002,-23.3264675 -52.000002,-52.0274765 0,-28.70101 23.283821,-51.972533 52.000002,-51.972533 z"
             style="color:#000000;font-family:Sans;-inkscape-font-specification:Sans;display:inline;visibility:visible;fill:#ffffff;fill-opacity:1;stroke:none;stroke-width:1.39961;marker:none;enable-background:new" /><path
             d="m -65.112206,-102.22584 c -2.30373,0.25771 -4.781077,0.67896 -6.898437,1.38476 l 0.130859,7.68555 c -1.785339,0.881879 -3.461626,2.184445 -4.978516,3.361328 0,0 -0.002,0 -0.002,0 0,0 0,0.002 0,0.002 0,0 -0.002,0 -0.002,0 0,0 0,0.002 0,0.002 l -6.439453,-2.761719 c 0.0012,-0.003 0.0027,-0.0068 0.0039,-0.0098 l -2.152344,-0.923829 c -7.31998,17.710489 -3.200873,39.431144 10.216797,53.154298 13.10649,14.122302 34.716716,19.293124 52.808595,12.691406 13.4466896,-4.578508 24.3592967,-15.349903 29.7324215,-28.384766 0.015013,-0.03642 0.029996,-0.07292 0.044922,-0.109375 l -2.1816406,-0.875 c -0.00145,0.0036 -0.00246,0.0081 -0.00391,0.01172 -6.22e-4,0.0016 -0.00133,0.0043 -0.00195,0.0059 l -6.4491182,-2.814554 c -1.557879,1.251457 -3.149913,2.423993 -5.015625,3.332032 l 0.09961,7.621094 c -2.383792,0.793089 -4.8645736,1.362501 -7.4257806,1.451171 l -2.773438,-7.125 c -1.762868,-0.263322 -3.452467,-0.52592 -5.28125,-1.089843 -1.771608,1.815582 -3.550276,3.619978 -5.3125,5.443359 -2.425643,-1.157769 -4.623847,-2.481157 -6.601562,-4.453125 1.03686,-2.313665 2.043416,-4.641843 3.070312,-6.960938 -1.065357,-1.40933 -2.074728,-2.858304 -3.003906,-4.486328 l -7.623047,0.09961 c -0.765653,-2.334498 -1.309906,-4.845323 -1.451172,-7.369141 1.627944,-0.64537 3.264817,-1.312316 4.898438,-1.966797 0.0084,-0.0034 0.01695,-0.0064 0.02539,-0.0098 l 0.708985,-0.277343 -0.002,-0.002 h -0.002 l -0.002,-0.002 c 0.477969,-0.19033 0.956426,-0.37978 1.433594,-0.566406 -0.07328,-2.672828 -0.592572,-5.37748 -1.583984,-7.816406 -2.535626,0.06604 -5.086196,0.110172 -7.623047,0.164062 -0.880538,-1.573032 -1.94191,-3.108363 -3.003907,-4.453125 l 3.03711,-7.025391 c -2.03455,-1.730246 -4.121468,-3.072633 -6.337891,-4.15625 l -5.28125,5.47461 c -1.92817,-0.590488 -3.900817,-0.929698 -5.873047,-1.121094 z m -0.691406,18.136716 h 5.570312 v 5.953125 h 5.78711 v 5.730469 h -5.78711 v 5.953125 h -5.570312 v -5.953125 h -5.785156 v -5.730469 h 5.785156 z"
             style="display:inline;fill:#1a1a1a;enable-background:new"
             id="path2" /><path
             style="fill:#1a1a1a"
             d="m -10.36052,-38.02902 2.8125,1.26563"
             id="path6" /><path
             style="fill:#1a1a1a"
             d="m -9.15739,-36.68527 1.375,-0.51562"
             id="path7" /><path
             style="fill:#1a1a1a"
             d="m -10.32927,-37.98214 2.39063,1.0625"
             id="path8" /><path
             style="fill:#1a1a1a"
             d="m -12.04802,-41.27902 9.10938,3.6875"
             id="path9" /><path
             style="fill:#1a1a1a"
             d="m 30.46761,-47.07589 19.125,13.4375"
             id="path10" /><path
             id="path12"
             style="fill:none"
             d="M 12.40511 -25.57589 L 12.40511 -25.63839 " /><path
             style="fill:#1a1a1a"
             d="m -98.71989,-73.49777 -3.35938,-1.51562"
             id="path13" /><path
             style="fill:#1a1a1a"
             d="m -10.39177,-37.99777 3.60938,1.5625"
             id="path14" /><path
             style="fill:#1a1a1a"
             d="m -101.41872,-74.81234 2.67375,1.28163"
             id="path15" /><path
             style="fill:#1a1a1a"
             d="m -101.5513,-74.61347 3.95538,1.5689"
             id="path16" /></g></g></g></g></svg>
