999
"DXF R12 Output" (www.mydxf.blogspot.com)
 0 
SECTION
 2 
HEADER
 9 
$ACADVER
 1 
AC1009
 9 
$EXTMIN
 10 
 0 
 20 
 0 
 9 
$EXTMAX
 10 
 8.5 
 20 
 11 
 0 
ENDSEC
 0 
SECTION
 2 
ENTITIES
0
POLYLINE
8
Layer 1
62
7
70
0
10
0.000000
20
0.000000
66
1
0
VERTEX
8
Layer 1
10
73.896856
20
185.269879
70
0
0
VERTEX
8
Layer 1
10
72.071647
20
184.903495
70
0
0
VERTEX
8
Layer 1
10
72.106270
20
182.870029
70
0
0
VERTEX
8
Layer 1
10
70.789040
20
181.980679
70
0
0
VERTEX
8
Layer 1
10
70.788510
20
181.980679
70
0
0
VERTEX
8
Layer 1
10
70.788510
20
181.980150
70
0
0
VERTEX
8
Layer 1
10
70.787981
20
181.980150
70
0
0
VERTEX
8
Layer 1
10
70.787981
20
181.979621
70
0
0
VERTEX
8
Layer 1
10
69.084212
20
182.710325
70
0
0
VERTEX
8
Layer 1
10
69.085243
20
182.712918
70
0
0
VERTEX
8
Layer 1
10
68.515770
20
182.957347
70
0
0
VERTEX
8
Layer 1
10
67.930257
20
181.156607
70
0
0
VERTEX
8
Layer 1
10
67.621849
20
179.293626
70
0
0
VERTEX
8
Layer 1
10
67.583911
20
177.405636
70
0
0
VERTEX
8
Layer 1
10
67.809804
20
175.529867
70
0
0
VERTEX
8
Layer 1
10
68.292893
20
173.703551
70
0
0
VERTEX
8
Layer 1
10
69.026540
20
171.963918
70
0
0
VERTEX
8
Layer 1
10
70.004108
20
170.348198
70
0
0
VERTEX
8
Layer 1
10
71.218961
20
168.893624
70
0
0
VERTEX
8
Layer 1
10
72.618622
20
167.604905
70
0
0
VERTEX
8
Layer 1
10
74.191940
20
166.546972
70
0
0
VERTEX
8
Layer 1
10
75.901640
20
165.728571
70
0
0
VERTEX
8
Layer 1
10
77.710445
20
165.158450
70
0
0
VERTEX
8
Layer 1
10
79.581081
20
164.845354
70
0
0
VERTEX
8
Layer 1
10
81.476272
20
164.798032
70
0
0
VERTEX
8
Layer 1
10
83.358743
20
165.025229
70
0
0
VERTEX
8
Layer 1
10
85.191217
20
165.535693
70
0
0
VERTEX
8
Layer 1
10
86.492398
20
166.064742
70
0
0
VERTEX
8
Layer 1
10
87.721402
20
166.735220
70
0
0
VERTEX
8
Layer 1
10
89.925612
20
168.451729
70
0
0
VERTEX
8
Layer 1
10
91.729297
20
170.587751
70
0
0
VERTEX
8
Layer 1
10
93.057910
20
173.045820
70
0
0
VERTEX
8
Layer 1
10
93.069796
20
173.074759
70
0
0
VERTEX
8
Layer 1
10
92.492571
20
173.306269
70
0
0
VERTEX
8
Layer 1
10
92.491536
20
173.303168
70
0
0
VERTEX
8
Layer 1
10
92.491020
20
173.301607
70
0
0
VERTEX
8
Layer 1
10
90.784693
20
174.046290
70
0
0
VERTEX
8
Layer 1
10
89.457644
20
173.164691
70
0
0
VERTEX
8
Layer 1
10
89.484000
20
171.148279
70
0
0
VERTEX
8
Layer 1
10
88.519235
20
170.886410
70
0
0
VERTEX
8
Layer 1
10
87.519264
20
170.764324
70
0
0
VERTEX
8
Layer 1
10
86.785460
20
172.649478
70
0
0
VERTEX
8
Layer 1
10
85.388131
20
172.937832
70
0
0
VERTEX
8
Layer 1
10
83.982533
20
171.497611
70
0
0
VERTEX
8
Layer 1
10
83.064760
20
172.005938
70
0
0
VERTEX
8
Layer 1
10
82.235872
20
172.675832
70
0
0
VERTEX
8
Layer 1
10
83.048225
20
174.517578
70
0
0
VERTEX
8
Layer 1
10
82.253442
20
175.704584
70
0
0
VERTEX
8
Layer 1
10
80.236514
20
175.678229
70
0
0
VERTEX
8
Layer 1
10
79.852558
20
177.627979
70
0
0
VERTEX
8
Layer 1
10
81.148602
20
178.148360
70
0
0
VERTEX
8
Layer 1
10
81.155319
20
178.150953
70
0
0
VERTEX
8
Layer 1
10
81.342905
20
178.224333
70
0
0
VERTEX
8
Layer 1
10
81.342376
20
178.224862
70
0
0
VERTEX
8
Layer 1
10
81.341846
20
178.224862
70
0
0
VERTEX
8
Layer 1
10
81.341317
20
178.225391
70
0
0
VERTEX
8
Layer 1
10
81.720622
20
178.375253
70
0
0
VERTEX
8
Layer 1
10
81.602170
20
179.432504
70
0
0
VERTEX
8
Layer 1
10
81.301527
20
180.443341
70
0
0
VERTEX
8
Layer 1
10
79.284598
20
180.399933
70
0
0
VERTEX
8
Layer 1
10
78.489815
20
181.578154
70
0
0
VERTEX
8
Layer 1
10
79.293383
20
183.436953
70
0
0
VERTEX
8
Layer 1
10
77.616485
20
184.536626
70
0
0
VERTEX
8
Layer 1
10
76.219156
20
183.088137
70
0
0
VERTEX
8
Layer 1
10
74.665247
20
183.384760
70
0
0
VERTEX
8
Layer 1
10
73.896856
20
185.269879
70
0
0
SEQEND
8
Layer 1
0
POLYLINE
8
Layer 1
62
7
70
0
10
0.000000
20
0.000000
66
1
0
VERTEX
8
Layer 1
10
73.713922
20
180.471213
70
0
0
VERTEX
8
Layer 1
10
75.187732
20
180.471213
70
0
0
VERTEX
8
Layer 1
10
75.187732
20
178.896117
70
0
0
VERTEX
8
Layer 1
10
76.718903
20
178.896117
70
0
0
VERTEX
8
Layer 1
10
76.718903
20
177.379932
70
0
0
VERTEX
8
Layer 1
10
75.187732
20
177.379932
70
0
0
VERTEX
8
Layer 1
10
75.187732
20
175.804837
70
0
0
VERTEX
8
Layer 1
10
73.713922
20
175.804837
70
0
0
VERTEX
8
Layer 1
10
73.713922
20
177.379932
70
0
0
VERTEX
8
Layer 1
10
72.183268
20
177.379932
70
0
0
VERTEX
8
Layer 1
10
72.183268
20
178.896117
70
0
0
VERTEX
8
Layer 1
10
73.713922
20
178.896117
70
0
0
VERTEX
8
Layer 1
10
73.713922
20
180.471213
70
0
0
SEQEND
8
Layer 1
 0 
ENDSEC
 0 
EOF